<svg xmlns="http://www.w3.org/2000/svg" width="150" height="150" viewBox="0 0 150 150"><path fill="#1a1b1e" d="M126.876 100.782c-.543-1.193-.65-6.51-.65-6.51l-7.812-22.456c.65-1.41-.22-4.23-.22-4.23l-4.228-11.717c-1.628-5.533-3.58-8.57-3.58-8.57-5.207-7.16-11.174-7.16-11.174-7.16-1.41-7.16-9.11-6.184-9.11-6.184-6.186 1.085-6.943 4.99-6.943 4.99l-.327 1.52c-2.062-.978-3.362-4.23-3.362-4.23-.106-.65-.76-1.846-.76-1.846-1.145-1.994-3.687-1.952-3.687-1.952v.035l-.043.003v-.038s-2.5-.083-3.688 1.952c0 0-.65 1.194-.76 1.845 0 0-1.302 3.254-3.362 4.23l-.326-1.52s-.76-3.904-6.942-4.99c0 0-7.702-.975-9.112 6.185 0 0-5.967 0-11.174 7.16 0 0-1.952 3.037-3.58 8.57l-4.23 11.716s-.867 2.82-.217 4.23l-7.812 22.457s-.108 5.314-.65 6.51c0 0-2.496 14.102 17.248 16.705 0 0 17.356 1.52 19.2-13.452 0 0 .218-2.495.326-4.447 0 0-.542-3.906-1.193-5.426l-2.39-16.27s10.848-.868 10.848-9.547c0 0 .012-3.192 4.036-4.155.875.992 2.242 1.642 3.796 1.642 1.555 0 2.92-.65 3.796-1.64 4.024.962 4.036 4.154 4.036 4.154 0 8.678 10.848 9.547 10.848 9.547l-2.386 16.27c-.65 1.52-1.192 5.426-1.192 5.426.107 1.953.324 4.448.324 4.448 1.846 14.97 19.2 13.452 19.2 13.452 19.745-2.605 17.25-16.708 17.25-16.708zm-85.346 7.882c-7.81 0-14.14-4.14-14.14-7.16 0-4.452 6.33-8.967 14.14-8.967 7.808 0 14.14 4.515 14.14 8.968 0 3.996-6.332 7.16-14.14 7.16zm66.94 0c-7.808 0-14.14-3.163-14.14-7.16 0-4.452 6.332-8.967 14.14-8.967 7.812 0 14.14 4.515 14.14 8.968 0 3.018-6.33 7.16-14.14 7.16z"/></svg>
